# 3ds Max Wavefront OBJ Exporter v0.97b - (c)2007 guruware
# File Created: 20.10.2018 00:28:10

mtllib ????\katana.mtl

#
# object Cylinder001
#

v  -0.1596 20.9663 5.0710
v  -0.3305 20.5560 5.0710
v  -0.5725 20.5557 5.0710
v  -0.7436 20.9656 5.0710
v  -0.7437 21.5456 5.0710
v  -0.5727 21.9559 5.0710
v  -0.3308 21.9562 5.0710
v  -0.1597 21.5463 5.0710
v  -0.3308 21.9562 13.2334
v  -0.1597 21.5463 13.2334
v  -0.5727 21.9559 13.2334
v  -0.7437 21.5456 13.2334
v  -0.7436 20.9656 13.2334
v  -0.5725 20.5557 13.2334
v  -0.3305 20.5560 13.2334
v  -0.1595 20.9663 13.2334
v  -0.5707 21.1177 4.4368
v  -0.5707 21.1888 -1.3590
v  -0.4528 20.6999 -1.3540
v  -0.4528 20.6201 4.4236
v  -0.5707 21.8765 4.4424
v  -0.4528 21.8765 4.4424
v  -0.4528 21.9560 -1.3331
v  -0.5707 21.9560 -1.3331
v  -0.3350 21.1177 4.4368
v  -0.3350 21.1888 -1.3590
v  -0.3350 21.9560 -1.3331
v  -0.3350 21.8765 4.4424
v  -0.3350 22.3666 -17.8718
v  -0.4528 22.0506 -18.6371
v  -0.4528 23.1123 -19.1852
v  -0.3350 22.9667 -18.2527
v  -0.5707 22.3666 -17.8718
v  -0.5707 21.7863 -13.2860
v  -0.5707 22.5003 -13.1774
v  -0.5707 22.9667 -18.2527
v  -0.5707 21.4026 -7.3526
v  -0.4528 21.2617 -13.3399
v  -0.4528 20.8954 -7.4132
v  -0.3350 22.1491 -7.3070
v  -0.3350 22.5003 -13.1774
v  -0.4528 22.5003 -13.1774
v  -0.4528 22.1491 -7.3070
v  -0.3350 21.4026 -7.3526
v  -0.3350 21.7863 -13.2860
v  -0.5707 22.1491 -7.3070
v  -0.5442 20.5833 4.3582
v  -0.6906 20.9218 4.3582
v  -0.2020 20.9218 4.3582
v  -0.3399 20.5833 4.3582
v  -0.5442 20.5833 5.0663
v  -0.3399 20.5833 5.0663
v  -0.2020 20.9218 5.0663
v  -0.6906 20.9218 5.0663
v  -0.3399 21.9375 4.3582
v  -0.5442 21.9375 4.3582
v  -0.5442 21.9375 5.0663
v  -0.3399 21.9375 5.0663
v  -0.6906 21.5989 4.3582
v  -0.6906 21.5989 5.0663
v  -0.7177 21.2604 4.3582
v  -0.2020 21.5989 4.3582
v  -0.1748 21.2604 4.3582
v  -0.1748 21.2604 5.0663
v  -0.2020 21.5989 5.0663
v  -0.7177 21.2604 5.0663
v  -0.5442 20.5925 13.2451
v  -0.6906 20.9265 13.2451
v  -0.2020 20.9265 13.2451
v  -0.3399 20.5925 13.2451
v  -0.5442 20.5925 13.9531
v  -0.3399 20.5925 13.9531
v  -0.2020 20.9265 13.9531
v  -0.6906 20.9265 13.9531
v  -0.3399 21.9282 13.2451
v  -0.5442 21.9282 13.2451
v  -0.5442 21.9282 13.9531
v  -0.3399 21.9282 13.9531
v  -0.6906 21.5943 13.2451
v  -0.6906 21.5943 13.9531
v  -0.7177 21.2604 13.2451
v  -0.2020 21.5943 13.2451
v  -0.1748 21.2604 13.2451
v  -0.1748 21.2604 13.9531
v  -0.2020 21.5943 13.9531
v  -0.7177 21.2604 13.9531
v  -0.7777 19.6950 5.1784
v  -0.1527 19.6942 5.1784
v  0.2895 20.6166 5.1784
v  0.0335 20.5930 5.1784
v  -0.2807 19.8841 5.1784
v  -0.6591 19.8840 5.1784
v  -0.9735 20.5928 5.1784
v  0.2899 21.9221 5.1784
v  0.0331 21.9172 5.1784
v  -0.9739 21.9172 5.1784
v  -0.6596 22.6261 5.1784
v  -0.2812 22.6261 5.1784
v  -0.1517 22.8458 5.1784
v  -0.7767 22.8466 5.1784
v  -1.2189 21.9241 5.1784
v  -1.2193 20.6187 5.1784
v  -1.2193 20.6187 4.7787
v  -0.7777 19.6950 4.7787
v  -0.1527 19.6942 4.7787
v  0.2895 20.6166 4.7787
v  0.0335 20.5930 4.7787
v  -0.2807 19.8841 4.7787
v  -0.6591 19.8840 4.7787
v  -0.9735 20.5928 4.7787
v  0.2899 21.9221 4.7787
v  -0.1517 22.8458 4.7787
v  -0.7767 22.8466 4.7787
v  -1.2189 21.9241 4.7787
v  0.0331 21.9172 4.7787
v  -0.2812 22.6261 4.7787
v  -0.6596 22.6261 4.7787
v  -0.9739 21.9172 4.7787
# 118 vertices

vn 0.4829 -0.1538 -0.6303
vn 0.1324 -0.7650 -0.6303
vn -0.2957 -0.9281 -0.6303
vn -0.5505 -0.5475 -0.6303
vn -0.4829 0.1538 -0.6303
vn -0.1324 0.7650 -0.6303
vn 0.2957 0.9281 -0.6303
vn 0.5505 0.5475 -0.6303
vn 0.2957 0.9281 0.6302
vn 0.5505 0.5475 0.6303
vn -0.1324 0.7650 0.6303
vn -0.4829 0.1538 0.6303
vn -0.5505 -0.5475 0.6303
vn -0.2957 -0.9281 0.6303
vn 0.1323 -0.7650 0.6303
vn 0.4829 -0.1539 0.6302
vn -0.5368 -0.4348 0.6710
vn -0.7252 -0.5715 -0.0041
vn -0.1142 -1.1802 -0.0149
vn -0.0964 -0.9963 0.5362
vn -0.3505 0.5165 0.5833
vn 0.0795 0.8212 0.7183
vn 0.1142 1.1802 0.0150
vn -0.4297 0.6389 0.0106
vn 0.4904 -0.0443 0.6710
vn 0.6657 -0.0428 -0.0041
vn 0.5909 1.0269 0.0106
vn 0.4811 0.8327 0.5832
vn 0.6551 -0.0805 -0.0542
vn -0.0912 -0.9429 -0.6015
vn 0.0405 0.4187 -0.9350
vn 0.6643 0.8700 -0.0765
vn -0.7213 -0.6037 -0.0542
vn -0.7262 -0.5551 -0.0150
vn -0.4306 0.6366 0.0347
vn -0.5402 0.4121 -0.0765
vn -0.7258 -0.5619 -0.0080
vn -0.1139 -1.1775 -0.0697
vn -0.1141 -1.1798 -0.0314
vn 0.5912 1.0260 0.0211
vn 0.5914 1.0251 0.0347
vn 0.1140 1.1787 0.0525
vn 0.1142 1.1798 0.0300
vn 0.6683 -0.0320 -0.0080
vn 0.6701 -0.0243 -0.0150
vn -0.4303 0.6377 0.0211
vn -0.2911 -0.9279 -0.6318
vn -0.5255 -0.6137 -0.6450
vn 0.4460 -0.2318 -0.6477
vn 0.1355 -0.7628 -0.6293
vn -0.2911 -0.9279 0.6318
vn 0.1355 -0.7628 0.6293
vn 0.4460 -0.2318 0.6477
vn -0.5255 -0.6137 0.6450
vn 0.2991 0.9280 -0.6293
vn -0.1269 0.7690 -0.6318
vn -0.1269 0.7689 0.6318
vn 0.2990 0.9280 0.6293
vn -0.4423 0.2458 -0.6450
vn -0.4423 0.2458 0.6450
vn -0.5366 -0.2040 -0.6670
vn 0.5266 0.6015 -0.6477
vn 0.5366 0.2040 -0.6670
vn 0.5366 0.2040 0.6670
vn 0.5266 0.6015 0.6477
vn -0.5366 -0.2040 0.6670
vn -0.2893 -0.9279 -0.6323
vn -0.5248 -0.6172 -0.6446
vn 0.4446 -0.2361 -0.6473
vn 0.1335 -0.7642 -0.6299
vn -0.2893 -0.9278 0.6323
vn 0.1335 -0.7643 0.6299
vn 0.4446 -0.2361 0.6473
vn -0.5249 -0.6172 0.6446
vn 0.2972 0.9280 -0.6299
vn -0.1250 0.7704 -0.6323
vn -0.1250 0.7704 0.6323
vn 0.2972 0.9280 0.6299
vn -0.4409 0.2501 -0.6446
vn -0.4409 0.2501 0.6446
vn -0.5370 -0.2041 -0.6665
vn 0.5260 0.6050 -0.6473
vn 0.5370 0.2041 -0.6665
vn 0.5370 0.2041 0.6665
vn 0.5260 0.6050 0.6473
vn -0.5369 -0.2041 0.6665
vn -0.2778 -0.9270 0.6360
vn 0.1121 -0.7792 0.6360
vn 0.5494 -0.2173 0.4282
vn -0.1653 -0.1601 0.9727
vn -0.1234 0.7714 -0.6328
vn 0.2877 0.9278 -0.6328
vn 0.5257 -0.1510 -0.5462
vn 0.4746 0.4979 0.7377
vn -0.1140 0.0328 -0.9834
vn 0.5961 0.5776 -0.5462
vn 0.1233 -0.7715 -0.6328
vn -0.2877 -0.9278 -0.6328
vn 0.2778 0.9270 0.6360
vn -0.1121 0.7792 0.6360
vn -0.4748 0.1878 0.6247
vn -0.5490 -0.5758 0.6247
vn -0.5490 -0.5758 -0.6247
vn -0.2778 -0.9270 -0.6360
vn 0.1121 -0.7792 -0.6360
vn 0.4037 -0.1597 -0.7477
vn -0.1305 -0.1265 -0.9830
vn -0.1234 0.7714 0.6328
vn 0.2877 0.9278 0.6328
vn 0.5257 -0.1510 0.5462
vn 0.6270 0.6577 -0.4524
vn 0.2778 0.9270 -0.6360
vn -0.1120 0.7792 -0.6361
vn -0.4748 0.1879 -0.6246
vn -0.1484 0.0427 -0.9716
vn -0.2877 -0.9277 0.6328
vn 0.1233 -0.7716 0.6328
vn 0.5961 0.5776 0.5462
# 118 vertex normals

vt 0.4786 0.0000 0.4142
vt 0.2197 0.0000 -0.4142
vt 0.1250 0.0000 -1.0000
vt 0.2500 0.0000 -1.0000
vt 0.5214 0.0000 -0.4142
vt 0.7803 0.0000 0.4142
vt 0.8750 0.0000 1.0000
vt 0.7500 0.0000 1.0000
vt 0.8750 1.0000 1.0000
vt 0.7500 1.0000 1.0000
vt -0.1250 0.0000 1.0000
vt 0.0000 0.0000 1.0000
vt 0.0000 1.0000 1.0000
vt -0.1250 1.0000 1.0000
vt 0.1250 0.0000 1.0000
vt 0.1250 1.0000 1.0000
vt 0.2500 0.0000 1.0000
vt 0.2500 1.0000 1.0000
vt 0.3750 0.0000 1.0000
vt 0.3750 1.0000 1.0000
vt 0.5000 0.0000 1.0000
vt 0.5000 1.0000 1.0000
vt 0.6250 0.0000 1.0000
vt 0.6250 1.0000 1.0000
vt 0.7803 1.0000 0.4142
vt 0.5214 1.0000 -0.4142
vt 0.2500 1.0000 -1.0000
vt 0.1250 1.0000 -1.0000
vt 0.2197 1.0000 -0.4142
vt 1.0000 0.0000 0.0000
vt 1.0000 0.2500 0.0000
vt 0.5000 0.2500 0.0000
vt 0.5000 0.0000 0.0000
vt 0.0000 0.0000 0.0000
vt 0.0000 0.2500 0.0000
vt 0.5000 1.0000 0.0000
vt 0.0000 1.0000 0.0000
vt 0.2500 0.0000 0.0000
vt 0.2500 1.0000 0.0000
vt 1.0000 0.5000 0.0000
vt 1.0000 0.7500 0.0000
vt 0.5000 0.7500 0.0000
vt 0.5000 0.5000 0.0000
vt 0.7500 0.0000 0.0000
vt 0.7500 1.0000 0.0000
vt 1.0000 1.0000 0.0000
vt 0.0000 0.7500 0.0000
vt 0.0000 0.5000 0.0000
vt 0.2287 0.0000 -0.6607
vt 0.2909 0.0000 -0.2445
vt 0.4476 0.0000 0.2571
vt 0.6457 0.0000 0.6741
vt 0.3559 0.0000 -0.6596
vt 0.7729 0.0000 0.6752
vt 0.7107 0.0000 0.2589
vt 0.5540 0.0000 -0.2426
vt 1.0000 0.3585 0.0000
vt 0.0000 0.3585 0.0000
vt 0.0000 0.5932 0.0000
vt 1.0000 0.5932 0.0000
vt 0.3576 1.0000 -0.6527
vt 0.5550 1.0000 -0.2386
vt 0.7119 1.0000 0.2637
vt 0.7762 1.0000 0.6886
vt 0.2346 1.0000 -0.6373
vt 0.6818 1.0000 0.8185
vt 0.5512 1.0000 0.6716
vt 0.3185 1.0000 -0.1339
# 68 texture coords

o Cylinder001
g Cylinder001
usemtl wire_086086086
s 1
f 1/1/1 2/2/2 3/3/3 4/4/4 5/5/5 6/6/6 7/7/7 8/8/8 
s 8
f 8/8/8 7/7/7 9/9/9 10/10/10 
f 7/11/7 6/12/6 11/13/11 9/14/9 
f 6/12/6 5/15/5 12/16/12 11/13/11 
f 5/15/5 4/17/4 13/18/13 12/16/12 
f 4/17/4 3/19/3 14/20/14 13/18/13 
f 3/19/3 2/21/2 15/22/15 14/20/14 
f 2/21/2 1/23/1 16/24/16 15/22/15 
f 1/23/1 8/8/8 10/10/10 16/24/16 
s 1
f 16/24/16 10/10/10 9/9/9 11/25/11 12/26/12 13/27/13 14/28/14 15/29/15 
s 2
f 17/30/17 18/31/18 19/32/19 20/33/20 
s 4
f 21/34/21 22/33/22 23/32/23 24/35/24 
s 8
f 17/34/17 20/33/20 22/36/22 21/37/21 
s 16
f 25/34/25 26/38/26 27/39/27 28/37/28 
s 32
f 29/34/29 30/33/30 31/36/31 32/37/32 
s 64
f 33/34/33 34/38/34 35/39/35 36/37/36 
s 2
f 37/40/37 34/41/34 38/42/38 39/43/39 
s 4
f 40/40/40 41/41/41 42/42/42 43/43/43 
s 16
f 44/33/44 45/44/45 41/45/41 40/36/40 
s 64
f 37/33/37 18/44/18 24/45/24 46/36/46 
f 34/38/34 37/33/37 46/36/46 35/39/35 
s 2
f 34/41/34 33/46/33 30/36/30 38/42/38 
s 4
f 41/41/41 32/46/32 31/36/31 42/42/42 
s 16
f 45/44/45 29/30/29 32/46/32 41/45/41 
s 2
f 18/31/18 37/40/37 39/43/39 19/32/19 
s 4
f 27/31/27 40/40/40 43/43/43 23/32/23 
s 16
f 26/38/26 44/33/44 40/36/40 27/39/27 
s 64
f 18/44/18 17/30/17 21/46/21 24/45/24 
s 2
f 19/32/19 26/35/26 25/34/25 20/33/20 
s 4
f 22/33/22 28/30/28 27/31/27 23/32/23 
s 8
f 20/33/20 25/30/25 28/46/28 22/36/22 
s 32
f 30/33/30 33/30/33 36/46/36 31/36/31 
s 2
f 38/42/38 45/47/45 44/48/44 39/43/39 
s 4
f 42/42/42 35/47/35 46/48/46 43/43/43 
s 2
f 30/36/30 29/37/29 45/47/45 38/42/38 
s 4
f 31/36/31 36/37/36 35/47/35 42/42/42 
s 2
f 39/43/39 44/48/44 26/35/26 19/32/19 
s 4
f 43/43/43 46/48/46 24/35/24 23/32/23 
s 2
f 47/30/47 48/31/48 49/35/49 50/34/50 
s 4
f 51/34/51 52/30/52 53/31/53 54/35/54 
s 8
f 47/34/47 50/30/50 52/46/52 51/37/51 
s 16
f 50/34/50 49/38/49 53/39/53 52/37/52 
s 32
f 55/34/55 56/30/56 57/46/57 58/37/58 
s 64
f 56/34/56 59/38/59 60/39/60 57/37/57 
s 2
f 61/40/61 59/41/59 62/47/62 63/48/63 
s 4
f 64/40/64 65/41/65 60/47/60 66/48/66 
s 16
f 63/33/63 62/44/62 65/45/65 64/36/64 
s 64
f 61/33/61 48/44/48 54/45/54 66/36/66 
f 59/38/59 61/33/61 66/36/66 60/39/60 
s 2
f 59/41/59 56/46/56 55/37/55 62/47/62 
s 4
f 65/41/65 58/46/58 57/37/57 60/47/60 
s 16
f 62/44/62 55/30/55 58/46/58 65/45/65 
s 2
f 48/31/48 61/40/61 63/48/63 49/35/49 
s 4
f 53/31/53 64/40/64 66/48/66 54/35/54 
s 16
f 49/38/49 63/33/63 64/36/64 53/39/53 
s 64
f 48/44/48 47/30/47 51/46/51 54/45/54 
s 2
f 67/30/67 68/31/68 69/35/69 70/34/70 
s 4
f 71/34/71 72/30/72 73/31/73 74/35/74 
s 8
f 67/34/67 70/30/70 72/46/72 71/37/71 
s 16
f 70/34/70 69/38/69 73/39/73 72/37/72 
s 32
f 75/34/75 76/30/76 77/46/77 78/37/78 
s 64
f 76/34/76 79/38/79 80/39/80 77/37/77 
s 2
f 81/40/81 79/41/79 82/47/82 83/48/83 
s 4
f 84/40/84 85/41/85 80/47/80 86/48/86 
s 16
f 83/33/83 82/44/82 85/45/85 84/36/84 
s 64
f 81/33/81 68/44/68 74/45/74 86/36/86 
f 79/38/79 81/33/81 86/36/86 80/39/80 
s 2
f 79/41/79 76/46/76 75/37/75 82/47/82 
s 4
f 85/41/85 78/46/78 77/37/77 80/47/80 
s 16
f 82/44/82 75/30/75 78/46/78 85/45/85 
s 2
f 68/31/68 81/40/81 83/48/83 69/35/69 
s 4
f 73/31/73 84/40/84 86/48/86 74/35/74 
s 16
f 69/38/69 83/33/83 84/36/84 73/39/73 
s 64
f 68/44/68 67/30/67 71/46/71 74/45/74 
s 1
f 87/1/87 88/2/88 89/3/89 90/49/90 91/50/91 92/51/92 93/52/93 90/49/90 89/3/89 94/4/94 95/53/95 96/54/96 97/55/97 98/56/98 95/53/95 94/4/94 99/5/99 100/6/100 101/7/101 102/8/102 
s 8
f 87/23/87 102/8/102 103/10/103 104/24/104 
f 88/21/88 87/23/87 104/24/104 105/22/105 
f 89/19/89 88/21/88 105/22/105 106/20/106 
s 16
f 91/57/91 90/58/90 107/59/107 108/60/108 
s 32
f 92/57/92 91/58/91 108/59/108 109/60/109 
s 64
f 93/57/93 92/58/92 109/59/109 110/60/110 
s 128
f 90/57/90 93/58/93 110/59/110 107/60/107 
s 8
f 94/17/94 89/19/89 106/20/106 111/18/111 
f 99/15/99 94/17/94 111/18/111 112/16/112 
f 100/12/100 99/15/99 112/16/112 113/13/113 
f 101/11/101 100/12/100 113/13/113 114/14/114 
f 102/8/102 101/7/101 114/9/114 103/10/103 
s 1
f 104/24/104 103/10/103 114/9/114 113/25/113 112/26/112 111/27/111 115/61/115 116/62/116 117/63/117 118/64/118 115/61/115 111/27/111 106/28/106 107/65/107 110/66/110 109/67/109 108/68/108 107/65/107 106/28/106 105/29/105 
s 256
f 96/57/96 95/58/95 115/59/115 118/60/118 
s 512
f 97/57/97 96/58/96 118/59/118 117/60/117 
s 2048
f 95/57/95 98/58/98 116/59/116 115/60/115 
s 1024
f 98/57/98 97/58/97 117/59/117 116/60/116 
# 92 polygons

#
# object Cylinder002
#

v  -0.1511 22.2994 -19.3961
v  -0.3270 21.8184 -19.4560
v  -0.5760 21.8181 -19.4561
v  -0.7521 22.2986 -19.3962
v  -0.7522 22.9785 -19.3114
v  -0.5763 23.4594 -19.2514
v  -0.3273 23.4598 -19.2513
v  -0.1512 22.9793 -19.3113
v  -0.3273 22.6932 -12.9673
v  -0.1512 22.2254 -13.0156
v  -0.5763 22.6929 -12.9673
v  -0.7522 22.2246 -13.0156
v  -0.7521 21.5627 -13.0840
v  -0.5760 21.0949 -13.1322
v  -0.3270 21.0952 -13.1322
v  -0.1511 21.5635 -13.0839
v  -0.1511 20.9285 4.6396
v  -0.1512 21.5814 4.6396
v  -0.3273 22.0429 4.6396
v  -0.5763 22.0425 4.6396
v  -0.7522 21.5806 4.6396
v  -0.7521 20.9277 4.6396
v  -0.5760 20.4663 4.6396
v  -0.3270 20.4666 4.6396
v  -0.3273 22.1181 -1.3744
v  -0.1512 21.6532 -1.3779
v  -0.5763 22.1178 -1.3744
v  -0.7522 21.6524 -1.3779
v  -0.7521 20.9947 -1.3828
v  -0.5760 20.5298 -1.3863
v  -0.3270 20.5301 -1.3863
v  -0.1511 20.9955 -1.3828
v  -0.3273 22.3023 -7.2447
v  -0.1512 21.8370 -7.2691
v  -0.5763 22.3020 -7.2448
v  -0.7522 21.8362 -7.2691
v  -0.7521 21.1778 -7.3035
v  -0.5760 20.7125 -7.3278
v  -0.3270 20.7128 -7.3278
v  -0.1511 21.1786 -7.3035
# 40 vertices

vn 0.4908 -0.0241 -0.6786
vn 0.1539 -0.6039 -0.7529
vn -0.2865 -0.7718 -0.7529
vn -0.5330 -0.4140 -0.6787
vn -0.4928 0.2210 -0.5672
vn -0.1453 0.8739 -0.4717
vn 0.3314 1.0555 -0.4716
vn 0.5747 0.6276 -0.5671
vn 0.3910 1.1403 0.2749
vn 0.7129 0.6534 0.0994
vn -0.1925 0.9180 0.2747
vn -0.6364 0.1395 0.0991
vn -0.7072 -0.6843 -0.1131
vn -0.3835 -1.1500 -0.2567
vn 0.1825 -0.9344 -0.2566
vn 0.6241 -0.1772 -0.1128
vn 0.4878 -0.1405 0.6289
vn 0.5491 0.5186 0.6392
vn 0.3051 0.9135 0.6406
vn -0.1454 0.7418 0.6407
vn -0.4871 0.1240 0.6392
vn -0.5531 -0.5370 0.6289
vn -0.3096 -0.9398 0.6147
vn 0.1450 -0.7666 0.6147
vn 0.3971 1.1868 0.0660
vn 0.7138 0.6738 0.0247
vn -0.1898 0.9632 0.0659
vn -0.6333 0.1607 0.0246
vn -0.7117 -0.6874 -0.0257
vn -0.3932 -1.1887 -0.0615
vn 0.1851 -0.9684 -0.0615
vn 0.6283 -0.1770 -0.0256
vn 0.3966 1.1750 0.1485
vn 0.7140 0.6655 0.0547
vn -0.1916 0.9509 0.1485
vn -0.6352 0.1516 0.0545
vn -0.7101 -0.6898 -0.0604
vn -0.3897 -1.1789 -0.1421
vn 0.1834 -0.9605 -0.1420
vn 0.6261 -0.1808 -0.0603
# 40 vertex normals

vt 0.4786 0.0000 0.4142
vt 0.2197 0.0000 -0.4142
vt 0.1250 0.0000 -1.0000
vt 0.2500 0.0000 -1.0000
vt 0.5214 0.0000 -0.4142
vt 0.7803 0.0000 0.4142
vt 0.8750 0.0000 1.0000
vt 0.7500 0.0000 1.0000
vt 0.8750 0.1250 1.0000
vt 0.7500 0.1250 1.0000
vt -0.1250 0.0000 1.0000
vt 0.0000 0.0000 1.0000
vt 0.0000 0.1250 1.0000
vt -0.1250 0.1250 1.0000
vt 0.1250 0.0000 1.0000
vt 0.1250 0.1250 1.0000
vt 0.2500 0.0000 1.0000
vt 0.2500 0.1250 1.0000
vt 0.3750 0.0000 1.0000
vt 0.3750 0.1250 1.0000
vt 0.5000 0.0000 1.0000
vt 0.5000 0.1250 1.0000
vt 0.6250 0.0000 1.0000
vt 0.6250 0.1250 1.0000
vt 0.6250 1.0000 1.0000
vt 0.7500 1.0000 1.0000
vt 0.8750 1.0000 1.0000
vt 0.7803 1.0000 0.4142
vt 0.5214 1.0000 -0.4142
vt 0.2500 1.0000 -1.0000
vt 0.1250 1.0000 -1.0000
vt 0.2197 1.0000 -0.4142
vt 0.8750 0.5000 1.0000
vt 0.7500 0.5000 1.0000
vt 0.0000 0.5000 1.0000
vt 0.0000 1.0000 1.0000
vt -0.1250 1.0000 1.0000
vt -0.1250 0.5000 1.0000
vt 0.1250 0.5000 1.0000
vt 0.1250 1.0000 1.0000
vt 0.2500 0.5000 1.0000
vt 0.2500 1.0000 1.0000
vt 0.3750 0.5000 1.0000
vt 0.3750 1.0000 1.0000
vt 0.5000 0.5000 1.0000
vt 0.5000 1.0000 1.0000
vt 0.6250 0.5000 1.0000
vt 0.8750 0.2500 1.0000
vt 0.7500 0.2500 1.0000
vt 0.0000 0.2500 1.0000
vt -0.1250 0.2500 1.0000
vt 0.1250 0.2500 1.0000
vt 0.2500 0.2500 1.0000
vt 0.3750 0.2500 1.0000
vt 0.5000 0.2500 1.0000
vt 0.6250 0.2500 1.0000
# 56 texture coords

o Cylinder002
g Cylinder002
usemtl wire_086086086
s 1
f 119/69/119 120/70/120 121/71/121 122/72/122 123/73/123 124/74/124 125/75/125 126/76/126 
s 8
f 126/76/126 125/75/125 127/77/127 128/78/128 
f 125/79/125 124/80/124 129/81/129 127/82/127 
f 124/80/124 123/83/123 130/84/130 129/81/129 
f 123/83/123 122/85/122 131/86/131 130/84/130 
f 122/85/122 121/87/121 132/88/132 131/86/131 
f 121/87/121 120/89/120 133/90/133 132/88/132 
f 120/89/120 119/91/119 134/92/134 133/90/133 
f 119/91/119 126/76/126 128/78/128 134/92/134 
s 1
f 135/93/135 136/94/136 137/95/137 138/96/138 139/97/139 140/98/140 141/99/141 142/100/142 
s 8
f 143/101/143 137/95/137 136/94/136 144/102/144 
f 145/103/145 138/104/138 137/105/137 143/106/143 
f 146/107/146 139/108/139 138/104/138 145/103/145 
f 147/109/147 140/110/140 139/108/139 146/107/146 
f 148/111/148 141/112/141 140/110/140 147/109/147 
f 149/113/149 142/114/142 141/112/141 148/111/148 
f 150/115/150 135/93/135 142/114/142 149/113/149 
f 144/102/144 136/94/136 135/93/135 150/115/150 
f 151/116/151 143/101/143 144/102/144 152/117/152 
f 153/118/153 145/103/145 143/106/143 151/119/151 
f 154/120/154 146/107/146 145/103/145 153/118/153 
f 155/121/155 147/109/147 146/107/146 154/120/154 
f 156/122/156 148/111/148 147/109/147 155/121/155 
f 157/123/157 149/113/149 148/111/148 156/122/156 
f 158/124/158 150/115/150 149/113/149 157/123/157 
f 152/117/152 144/102/144 150/115/150 158/124/158 
f 127/77/127 151/116/151 152/117/152 128/78/128 
f 129/81/129 153/118/153 151/119/151 127/82/127 
f 130/84/130 154/120/154 153/118/153 129/81/129 
f 131/86/131 155/121/155 154/120/154 130/84/130 
f 132/88/132 156/122/156 155/121/155 131/86/131 
f 133/90/133 157/123/157 156/122/156 132/88/132 
f 134/92/134 158/124/158 157/123/157 133/90/133 
f 128/78/128 152/117/152 158/124/158 134/92/134 
# 34 polygons

