# 3ds Max Wavefront OBJ Exporter v0.97b - (c)2007 guruware
# File Created: 02.10.2018 16:51:59

mtllib fire bottle.mtl

#
# object Tube001
#

v  -10.7443 12.2535 -2.8662
v  -10.7418 21.2476 -2.9090
v  -8.7631 21.2476 -2.0612
v  -8.7828 12.2535 -2.0257
v  -10.7418 23.9133 -1.4162
v  -9.7835 23.9133 -1.0057
v  -10.7418 28.9254 -1.4162
v  -9.7835 28.9254 -1.0057
v  -10.7418 29.5344 -1.6639
v  -9.6142 29.5344 -1.1808
v  -10.7418 29.9389 -1.6639
v  -9.6142 29.9389 -1.1808
v  -10.7418 30.3435 -1.4012
v  -10.7418 30.3435 -1.1643
v  -9.9557 30.3435 -0.8275
v  -9.7938 30.3435 -0.9950
v  -10.7418 29.9389 -1.3822
v  -9.8068 29.9389 -0.9816
v  -10.7418 29.5344 -1.3822
v  -10.7418 28.9254 -1.1768
v  -9.9471 28.9254 -0.8364
v  -9.8068 29.5344 -0.9816
v  -10.7418 23.9133 -1.1768
v  -9.9471 23.9133 -0.8364
v  -10.7418 21.2476 -2.4146
v  -9.1010 21.2476 -1.7116
v  -10.7443 12.2535 -2.3652
v  -9.1252 12.2535 -1.6715
v  -7.9435 21.2476 -0.0144
v  -7.9703 12.2535 0.0033
v  -9.3866 23.9133 -0.0144
v  -9.3866 28.9254 -0.0144
v  -9.1471 29.5344 -0.0144
v  -9.1471 29.9389 -0.0144
v  -9.6301 30.3435 -0.0144
v  -9.4011 30.3435 -0.0144
v  -9.4195 29.9389 -0.0144
v  -9.6180 28.9254 -0.0144
v  -9.4195 29.5344 -0.0144
v  -9.6180 23.9133 -0.0144
v  -8.4214 21.2476 -0.0144
v  -8.4546 12.2535 0.0033
v  -8.7631 21.2476 2.0324
v  -8.7828 12.2535 2.0324
v  -9.7835 23.9133 0.9769
v  -9.7835 28.9254 0.9769
v  -9.6142 29.5344 1.1520
v  -9.6142 29.9389 1.1520
v  -9.9557 30.3435 0.7987
v  -9.7938 30.3435 0.9662
v  -9.8068 29.9389 0.9528
v  -9.9471 28.9254 0.8076
v  -9.8068 29.5344 0.9528
v  -9.9471 23.9133 0.8076
v  -9.1010 21.2476 1.6828
v  -9.1252 12.2535 1.6781
v  -10.7418 21.2476 2.8802
v  -10.7443 12.2535 2.8728
v  -10.7418 23.9133 1.3874
v  -10.7418 28.9254 1.3874
v  -10.7418 29.5344 1.6351
v  -10.7418 29.9389 1.6351
v  -10.7418 30.3435 1.1355
v  -10.7418 30.3435 1.3724
v  -10.7418 29.9389 1.3534
v  -10.7418 28.9254 1.1480
v  -10.7418 29.5344 1.3534
v  -10.7418 23.9133 1.1480
v  -10.7418 21.2476 2.3858
v  -10.7443 12.2535 2.3719
v  -12.7205 21.2476 2.0324
v  -12.7059 12.2535 2.0324
v  -11.7001 23.9133 0.9769
v  -11.7001 28.9254 0.9769
v  -11.8694 29.5344 1.1520
v  -11.8694 29.9389 1.1520
v  -11.5279 30.3435 0.7987
v  -11.6898 30.3435 0.9662
v  -11.6768 29.9389 0.9528
v  -11.5364 28.9254 0.8076
v  -11.6768 29.5344 0.9528
v  -11.5364 23.9133 0.8076
v  -12.3826 21.2476 1.6828
v  -12.3634 12.2535 1.6781
v  -13.5401 21.2476 -0.0144
v  -13.5184 12.2535 0.0033
v  -12.0970 23.9133 -0.0144
v  -12.0970 28.9254 -0.0144
v  -12.3364 29.5344 -0.0144
v  -12.3364 29.9389 -0.0144
v  -11.8535 30.3435 -0.0144
v  -12.0824 30.3435 -0.0144
v  -12.0641 29.9389 -0.0144
v  -11.8656 28.9254 -0.0144
v  -12.0641 29.5344 -0.0144
v  -11.8656 23.9133 -0.0144
v  -13.0622 21.2476 -0.0144
v  -13.0341 12.2535 0.0033
v  -12.7205 21.2476 -2.0612
v  -12.7059 12.2535 -2.0257
v  -11.7001 23.9133 -1.0057
v  -11.7001 28.9254 -1.0057
v  -11.8694 29.5344 -1.1808
v  -11.8694 29.9389 -1.1808
v  -11.5279 30.3435 -0.8275
v  -11.6898 30.3435 -0.9950
v  -11.6768 29.9389 -0.9816
v  -11.5364 28.9254 -0.8364
v  -11.6768 29.5344 -0.9816
v  -11.5364 23.9133 -0.8364
v  -12.3826 21.2476 -1.7116
v  -12.3634 12.2535 -1.6715
v  -10.7443 11.4348 0.0033
v  -9.2231 11.4348 -1.5702
v  -8.5930 11.4348 0.0033
v  -10.7443 11.4348 -2.2220
v  -12.2656 11.4348 -1.5702
v  -12.8957 11.4348 0.0033
v  -12.2656 11.4348 1.5769
v  -10.7443 11.4348 2.2287
v  -9.2231 11.4348 1.5769
v  -8.9013 11.4348 -1.9031
v  -8.1379 11.4348 0.0033
v  -10.7443 11.4348 -2.6927
v  -12.5873 11.4348 -1.9031
v  -13.3507 11.4348 0.0033
v  -12.5873 11.4348 1.9097
v  -10.7443 11.4348 2.6994
v  -8.9013 11.4348 1.9097
v  -10.7443 12.2535 0.0033
# 130 vertices

vn -0.0000 -0.1039 -0.9946
vn 0.0000 0.2359 -0.9718
vn 0.6948 0.2334 -0.6803
vn 0.7114 -0.1022 -0.6953
vn 0.0000 0.2695 -0.9630
vn 0.6913 0.2650 -0.6722
vn 0.0000 -0.2017 -0.9795
vn 0.7023 -0.1982 -0.6837
vn 0.0000 -0.1834 -0.9830
vn 0.7030 -0.1810 -0.6878
vn 0.0000 0.2663 -0.9639
vn 0.6893 0.2635 -0.6749
vn -0.0000 0.8279 -0.5609
vn 0.0000 0.6365 0.7713
vn -0.5549 0.6349 0.5375
vn 0.4041 0.8270 -0.3909
vn 0.0000 -0.2311 0.9729
vn -0.6958 -0.2283 0.6810
vn 0.0000 0.1558 0.9878
vn 0.0000 0.1688 0.9857
vn -0.7065 0.1658 0.6880
vn -0.7063 0.1536 0.6910
vn -0.0000 -0.2280 0.9737
vn -0.6985 -0.2241 0.6796
vn -0.0000 -0.2024 0.9793
vn -0.7001 -0.2000 0.6854
vn 0.0001 0.6303 0.7763
vn -0.5546 0.6322 0.5411
vn 0.9729 0.2313 -0.0003
vn 0.9950 -0.1000 0.0002
vn 0.9654 0.2606 0.0000
vn 0.9808 -0.1948 0.0000
vn 0.9839 -0.1786 0.0000
vn 0.9654 0.2607 -0.0000
vn -0.7737 0.6335 -0.0000
vn 0.5635 0.8261 -0.0000
vn -0.9742 -0.2256 -0.0000
vn -0.9866 0.1630 -0.0000
vn -0.9885 0.1515 -0.0000
vn -0.9754 -0.2203 -0.0000
vn -0.9802 -0.1981 0.0003
vn -0.7736 0.6336 -0.0004
vn 0.6948 0.2347 0.6798
vn 0.7113 -0.1008 0.6956
vn 0.6913 0.2650 0.6722
vn 0.7024 -0.1982 0.6837
vn 0.7030 -0.1810 0.6878
vn 0.6893 0.2635 0.6748
vn -0.5549 0.6349 -0.5375
vn 0.4041 0.8270 0.3909
vn -0.6958 -0.2283 -0.6810
vn -0.7065 0.1658 -0.6880
vn -0.7064 0.1536 -0.6910
vn -0.6985 -0.2241 -0.6796
vn -0.7002 -0.2014 -0.6850
vn -0.5548 0.6311 -0.5421
vn 0.0000 0.2378 0.9713
vn -0.0000 -0.1020 0.9948
vn -0.0000 0.2695 0.9630
vn -0.0000 -0.2017 0.9795
vn -0.0000 -0.1834 0.9830
vn -0.0000 0.2663 0.9639
vn 0.0000 0.6365 -0.7713
vn -0.0000 0.8279 0.5609
vn 0.0000 -0.2311 -0.9729
vn 0.0000 0.1688 -0.9857
vn -0.0000 0.1558 -0.9878
vn -0.0000 -0.2280 -0.9737
vn -0.0000 -0.2043 -0.9789
vn 0.0001 0.6289 -0.7775
vn -0.6947 0.2349 0.6798
vn -0.7113 -0.1006 0.6956
vn -0.6913 0.2650 0.6722
vn -0.7024 -0.1981 0.6837
vn -0.7030 -0.1810 0.6878
vn -0.6893 0.2635 0.6749
vn 0.5549 0.6349 -0.5375
vn -0.4041 0.8270 0.3909
vn 0.6958 -0.2283 -0.6810
vn 0.7065 0.1658 -0.6880
vn 0.7064 0.1536 -0.6910
vn 0.6985 -0.2241 -0.6796
vn 0.7001 -0.2016 -0.6850
vn 0.5549 0.6310 -0.5421
vn -0.9728 0.2316 -0.0003
vn -0.9950 -0.0997 0.0002
vn -0.9654 0.2606 0.0000
vn -0.9808 -0.1948 -0.0000
vn -0.9839 -0.1786 -0.0000
vn -0.9654 0.2606 -0.0000
vn 0.7737 0.6335 0.0000
vn -0.5635 0.8261 -0.0000
vn 0.9742 -0.2256 0.0000
vn 0.9866 0.1630 0.0000
vn 0.9885 0.1514 0.0000
vn 0.9754 -0.2203 -0.0000
vn 0.9801 -0.1984 0.0003
vn 0.7738 0.6334 -0.0004
vn -0.6947 0.2336 -0.6803
vn -0.7115 -0.1020 -0.6953
vn -0.6913 0.2650 -0.6722
vn -0.7024 -0.1982 -0.6837
vn -0.7030 -0.1810 -0.6878
vn -0.6893 0.2635 -0.6748
vn 0.5549 0.6349 0.5375
vn -0.4041 0.8270 -0.3909
vn 0.6958 -0.2283 0.6810
vn 0.7065 0.1658 0.6880
vn 0.7064 0.1536 0.6910
vn 0.6985 -0.2241 0.6796
vn 0.7001 -0.2002 0.6854
vn 0.5547 0.6321 0.5411
vn 0.0000 -1.0000 -0.0000
vn -0.0000 -1.0000 0.0000
vn 0.5078 -0.7056 -0.4942
vn 0.7079 -0.7063 -0.0000
vn 0.0000 -0.7049 -0.7093
vn -0.5078 -0.7056 -0.4942
vn -0.7079 -0.7063 0.0000
vn -0.5078 -0.7056 0.4942
vn -0.0000 -0.7049 0.7093
vn 0.5078 -0.7056 0.4942
vn 0.0000 1.0000 -0.0000
# 123 vertex normals

vt 0.0000 0.0000 0.0000
vt 0.0833 0.0000 0.0000
vt 0.0833 0.1250 0.0000
vt 0.0000 0.1250 0.0000
vt 0.1667 0.0000 0.0000
vt 0.1667 0.1250 0.0000
vt 0.2500 0.0000 0.0000
vt 0.2500 0.1250 0.0000
vt 0.3333 0.0000 0.0000
vt 0.3333 0.1250 0.0000
vt 0.3750 0.0000 0.0000
vt 0.3750 0.1250 0.0000
vt 0.4167 0.0000 0.0000
vt 0.5000 0.0000 0.0000
vt 0.5000 0.1250 0.0000
vt 0.4167 0.1250 0.0000
vt 0.5417 0.0000 0.0000
vt 0.5417 0.1250 0.0000
vt 0.5833 0.0000 0.0000
vt 0.6667 0.0000 0.0000
vt 0.6667 0.1250 0.0000
vt 0.5833 0.1250 0.0000
vt 0.7500 0.0000 0.0000
vt 0.7500 0.1250 0.0000
vt 0.8333 0.0000 0.0000
vt 0.8333 0.1250 0.0000
vt 0.9167 0.0000 0.0000
vt 0.9167 0.1250 0.0000
vt 0.0833 0.2500 0.0000
vt 0.0000 0.2500 0.0000
vt 0.1667 0.2500 0.0000
vt 0.2500 0.2500 0.0000
vt 0.3333 0.2500 0.0000
vt 0.3750 0.2500 0.0000
vt 0.5000 0.2500 0.0000
vt 0.4167 0.2500 0.0000
vt 0.5417 0.2500 0.0000
vt 0.6667 0.2500 0.0000
vt 0.5833 0.2500 0.0000
vt 0.7500 0.2500 0.0000
vt 0.8333 0.2500 0.0000
vt 0.9167 0.2500 0.0000
vt 0.0833 0.3750 0.0000
vt 0.0000 0.3750 0.0000
vt 0.1667 0.3750 0.0000
vt 0.2500 0.3750 0.0000
vt 0.3333 0.3750 0.0000
vt 0.3750 0.3750 0.0000
vt 0.5000 0.3750 0.0000
vt 0.4167 0.3750 0.0000
vt 0.5417 0.3750 0.0000
vt 0.6667 0.3750 0.0000
vt 0.5833 0.3750 0.0000
vt 0.7500 0.3750 0.0000
vt 0.8333 0.3750 0.0000
vt 0.9167 0.3750 0.0000
vt 0.0833 0.5000 0.0000
vt 0.0000 0.5000 0.0000
vt 0.1667 0.5000 0.0000
vt 0.2500 0.5000 0.0000
vt 0.3333 0.5000 0.0000
vt 0.3750 0.5000 0.0000
vt 0.5000 0.5000 0.0000
vt 0.4167 0.5000 0.0000
vt 0.5417 0.5000 0.0000
vt 0.6667 0.5000 0.0000
vt 0.5833 0.5000 0.0000
vt 0.7500 0.5000 0.0000
vt 0.8333 0.5000 0.0000
vt 0.9167 0.5000 0.0000
vt 0.0833 0.6250 0.0000
vt 0.0000 0.6250 0.0000
vt 0.1667 0.6250 0.0000
vt 0.2500 0.6250 0.0000
vt 0.3333 0.6250 0.0000
vt 0.3750 0.6250 0.0000
vt 0.5000 0.6250 0.0000
vt 0.4167 0.6250 0.0000
vt 0.5417 0.6250 0.0000
vt 0.6667 0.6250 0.0000
vt 0.5833 0.6250 0.0000
vt 0.7500 0.6250 0.0000
vt 0.8333 0.6250 0.0000
vt 0.9167 0.6250 0.0000
vt 0.0833 0.7500 0.0000
vt 0.0000 0.7500 0.0000
vt 0.1667 0.7500 0.0000
vt 0.2500 0.7500 0.0000
vt 0.3333 0.7500 0.0000
vt 0.3750 0.7500 0.0000
vt 0.5000 0.7500 0.0000
vt 0.4167 0.7500 0.0000
vt 0.5417 0.7500 0.0000
vt 0.6667 0.7500 0.0000
vt 0.5833 0.7500 0.0000
vt 0.7500 0.7500 0.0000
vt 0.8333 0.7500 0.0000
vt 0.9167 0.7500 0.0000
vt 0.0833 0.8750 0.0000
vt 0.0000 0.8750 0.0000
vt 0.1667 0.8750 0.0000
vt 0.2500 0.8750 0.0000
vt 0.3333 0.8750 0.0000
vt 0.3750 0.8750 0.0000
vt 0.5000 0.8750 0.0000
vt 0.4167 0.8750 0.0000
vt 0.5417 0.8750 0.0000
vt 0.6667 0.8750 0.0000
vt 0.5833 0.8750 0.0000
vt 0.7500 0.8750 0.0000
vt 0.8333 0.8750 0.0000
vt 0.9167 0.8750 0.0000
vt 0.0833 1.0000 0.0000
vt 0.0000 1.0000 0.0000
vt 0.1667 1.0000 0.0000
vt 0.2500 1.0000 0.0000
vt 0.3333 1.0000 0.0000
vt 0.3750 1.0000 0.0000
vt 0.5000 1.0000 0.0000
vt 0.4167 1.0000 0.0000
vt 0.5417 1.0000 0.0000
vt 0.6667 1.0000 0.0000
vt 0.5833 1.0000 0.0000
vt 0.7500 1.0000 0.0000
vt 0.8333 1.0000 0.0000
vt 0.9167 1.0000 0.0000
vt 0.8750 0.0000 0.5000
vt 0.7500 0.0000 0.5000
vt 0.0000 0.0000 0.5000
vt -0.1250 0.0000 0.5000
vt 0.1250 0.0000 0.5000
vt 0.2500 0.0000 0.5000
vt 0.3750 0.0000 0.5000
vt 0.5000 0.0000 0.5000
vt 0.6250 0.0000 0.5000
vt 0.8750 0.0000 1.0000
vt 0.7500 0.0000 1.0000
vt 0.0000 0.0000 1.0000
vt -0.1250 0.0000 1.0000
vt 0.1250 0.0000 1.0000
vt 0.2500 0.0000 1.0000
vt 0.3750 0.0000 1.0000
vt 0.5000 0.0000 1.0000
vt 0.6250 0.0000 1.0000
vt 0.8750 1.0000 1.0000
vt 0.7500 1.0000 1.0000
vt 0.0000 1.0000 1.0000
vt -0.1250 1.0000 1.0000
vt 0.1250 1.0000 1.0000
vt 0.2500 1.0000 1.0000
vt 0.3750 1.0000 1.0000
vt 0.5000 1.0000 1.0000
vt 0.6250 1.0000 1.0000
vt 0.7500 1.0000 0.5000
vt 0.8750 1.0000 0.5000
vt -0.1250 1.0000 0.5000
vt 0.0000 1.0000 0.5000
vt 0.1250 1.0000 0.5000
vt 0.2500 1.0000 0.5000
vt 0.3750 1.0000 0.5000
vt 0.5000 1.0000 0.5000
vt 0.6250 1.0000 0.5000
# 162 texture coords

o Tube001
g Tube001
usemtl wire_153228214
s 2
f 1/1/1 2/2/2 3/3/3 4/4/4 
f 2/2/2 5/5/5 6/6/6 3/3/3 
f 5/5/5 7/7/7 8/8/8 6/6/6 
f 7/7/7 9/9/9 10/10/10 8/8/8 
f 9/9/9 11/11/11 12/12/12 10/10/10 
s 4
f 13/13/13 14/14/14 15/15/15 16/16/16 
s 2
f 14/14/14 17/17/17 18/18/18 15/15/15 
f 19/19/19 20/20/20 21/21/21 22/22/22 
f 20/20/20 23/23/23 24/24/24 21/21/21 
f 23/23/23 25/25/25 26/26/26 24/24/24 
f 25/25/25 27/27/27 28/28/28 26/26/26 
f 4/4/4 3/3/3 29/29/29 30/30/30 
f 3/3/3 6/6/6 31/31/31 29/29/29 
f 6/6/6 8/8/8 32/32/32 31/31/31 
f 8/8/8 10/10/10 33/33/33 32/32/32 
f 10/10/10 12/12/12 34/34/34 33/33/33 
s 4
f 16/16/16 15/15/15 35/35/35 36/36/36 
s 2
f 15/15/15 18/18/18 37/37/37 35/35/35 
f 22/22/22 21/21/21 38/38/38 39/39/39 
f 21/21/21 24/24/24 40/40/40 38/38/38 
f 24/24/24 26/26/26 41/41/41 40/40/40 
f 26/26/26 28/28/28 42/42/42 41/41/41 
f 30/30/30 29/29/29 43/43/43 44/44/44 
f 29/29/29 31/31/31 45/45/45 43/43/43 
f 31/31/31 32/32/32 46/46/46 45/45/45 
f 32/32/32 33/33/33 47/47/47 46/46/46 
f 33/33/33 34/34/34 48/48/48 47/47/47 
s 4
f 36/36/36 35/35/35 49/49/49 50/50/50 
s 2
f 35/35/35 37/37/37 51/51/51 49/49/49 
f 39/39/39 38/38/38 52/52/52 53/53/53 
f 38/38/38 40/40/40 54/54/54 52/52/52 
f 40/40/40 41/41/41 55/55/55 54/54/54 
f 41/41/41 42/42/42 56/56/56 55/55/55 
f 44/44/44 43/43/43 57/57/57 58/58/58 
f 43/43/43 45/45/45 59/59/59 57/57/57 
f 45/45/45 46/46/46 60/60/60 59/59/59 
f 46/46/46 47/47/47 61/61/61 60/60/60 
f 47/47/47 48/48/48 62/62/62 61/61/61 
s 4
f 50/50/50 49/49/49 63/63/63 64/64/64 
s 2
f 49/49/49 51/51/51 65/65/65 63/63/63 
f 53/53/53 52/52/52 66/66/66 67/67/67 
f 52/52/52 54/54/54 68/68/68 66/66/66 
f 54/54/54 55/55/55 69/69/69 68/68/68 
f 55/55/55 56/56/56 70/70/70 69/69/69 
f 58/58/58 57/57/57 71/71/71 72/72/72 
f 57/57/57 59/59/59 73/73/73 71/71/71 
f 59/59/59 60/60/60 74/74/74 73/73/73 
f 60/60/60 61/61/61 75/75/75 74/74/74 
f 61/61/61 62/62/62 76/76/76 75/75/75 
s 4
f 64/64/64 63/63/63 77/77/77 78/78/78 
s 2
f 63/63/63 65/65/65 79/79/79 77/77/77 
f 67/67/67 66/66/66 80/80/80 81/81/81 
f 66/66/66 68/68/68 82/82/82 80/80/80 
f 68/68/68 69/69/69 83/83/83 82/82/82 
f 69/69/69 70/70/70 84/84/84 83/83/83 
f 72/72/72 71/71/71 85/85/85 86/86/86 
f 71/71/71 73/73/73 87/87/87 85/85/85 
f 73/73/73 74/74/74 88/88/88 87/87/87 
f 74/74/74 75/75/75 89/89/89 88/88/88 
f 75/75/75 76/76/76 90/90/90 89/89/89 
s 4
f 78/78/78 77/77/77 91/91/91 92/92/92 
s 2
f 77/77/77 79/79/79 93/93/93 91/91/91 
f 81/81/81 80/80/80 94/94/94 95/95/95 
f 80/80/80 82/82/82 96/96/96 94/94/94 
f 82/82/82 83/83/83 97/97/97 96/96/96 
f 83/83/83 84/84/84 98/98/98 97/97/97 
f 86/86/86 85/85/85 99/99/99 100/100/100 
f 85/85/85 87/87/87 101/101/101 99/99/99 
f 87/87/87 88/88/88 102/102/102 101/101/101 
f 88/88/88 89/89/89 103/103/103 102/102/102 
f 89/89/89 90/90/90 104/104/104 103/103/103 
s 4
f 92/92/92 91/91/91 105/105/105 106/106/106 
s 2
f 91/91/91 93/93/93 107/107/107 105/105/105 
f 95/95/95 94/94/94 108/108/108 109/109/109 
f 94/94/94 96/96/96 110/110/110 108/108/108 
f 96/96/96 97/97/97 111/111/111 110/110/110 
f 97/97/97 98/98/98 112/112/112 111/111/111 
f 100/100/100 99/99/99 2/113/2 1/114/1 
f 99/99/99 101/101/101 5/115/5 2/113/2 
f 101/101/101 102/102/102 7/116/7 5/115/5 
f 102/102/102 103/103/103 9/117/9 7/116/7 
f 103/103/103 104/104/104 11/118/11 9/117/9 
s 4
f 106/106/106 105/105/105 14/119/14 13/120/13 
s 2
f 105/105/105 107/107/107 17/121/17 14/119/14 
f 109/109/109 108/108/108 20/122/20 19/123/19 
f 108/108/108 110/110/110 23/124/23 20/122/20 
f 110/110/110 111/111/111 25/125/25 23/124/23 
f 111/111/111 112/112/112 27/126/27 25/125/25 
f 11/11/11 13/13/13 16/16/16 12/12/12 
f 17/17/17 19/19/19 22/22/22 18/18/18 
f 12/12/12 16/16/16 36/36/36 34/34/34 
f 18/18/18 22/22/22 39/39/39 37/37/37 
f 34/34/34 36/36/36 50/50/50 48/48/48 
f 37/37/37 39/39/39 53/53/53 51/51/51 
f 48/48/48 50/50/50 64/64/64 62/62/62 
f 51/51/51 53/53/53 67/67/67 65/65/65 
f 62/62/62 64/64/64 78/78/78 76/76/76 
f 65/65/65 67/67/67 81/81/81 79/79/79 
f 76/76/76 78/78/78 92/92/92 90/90/90 
f 79/79/79 81/81/81 95/95/95 93/93/93 
f 90/90/90 92/92/92 106/106/106 104/104/104 
f 93/93/93 95/95/95 109/109/109 107/107/107 
f 104/104/104 106/106/106 13/120/13 11/118/11 
f 107/107/107 109/109/109 19/123/19 17/121/17 
s 1
f 113/14/113 114/127/113 115/128/113 
f 113/14/113 116/129/114 114/130/113 
f 113/14/113 117/131/113 116/129/114 
f 113/14/113 118/132/113 117/131/113 
f 113/14/113 119/133/113 118/132/113 
f 113/14/113 120/134/113 119/133/113 
f 113/14/113 121/135/113 120/134/113 
f 113/14/113 115/128/113 121/135/113 
f 115/128/113 114/127/113 122/136/115 123/137/116 
f 114/130/113 116/129/114 124/138/117 122/139/115 
f 116/129/114 117/131/113 125/140/118 124/138/117 
f 117/131/113 118/132/113 126/141/119 125/140/118 
f 118/132/113 119/133/113 127/142/120 126/141/119 
f 119/133/113 120/134/113 128/143/121 127/142/120 
f 120/134/113 121/135/113 129/144/122 128/143/121 
f 121/135/113 115/128/113 123/137/116 129/144/122 
s 8
f 123/137/116 122/136/115 4/145/4 30/146/30 
f 122/139/115 124/138/117 1/147/1 4/148/4 
f 124/138/117 125/140/118 100/149/100 1/147/1 
f 125/140/118 126/141/119 86/150/86 100/149/100 
f 126/141/119 127/142/120 72/151/72 86/150/86 
f 127/142/120 128/143/121 58/152/58 72/151/72 
f 128/143/121 129/144/122 44/153/44 58/152/58 
f 129/144/122 123/137/116 30/146/30 44/153/44 
s 1
f 130/119/123 42/154/42 28/155/28 
f 130/119/123 28/156/28 27/157/27 
f 130/119/123 27/157/27 112/158/112 
f 130/119/123 112/158/112 98/159/98 
f 130/119/123 98/159/98 84/160/84 
f 130/119/123 84/160/84 70/161/70 
f 130/119/123 70/161/70 56/162/56 
f 130/119/123 56/162/56 42/154/42 
# 120 polygons - 16 triangles

#
# object Cylinder001
#

v  -10.0823 27.8119 0.6320
v  -10.6811 27.8119 0.8940
v  -11.2799 27.8119 0.6320
v  -11.5279 27.8119 -0.0007
v  -11.2799 27.8119 -0.6333
v  -10.6811 27.8119 -0.8953
v  -10.0823 27.8119 -0.6333
v  -9.8343 27.8119 -0.0007
v  -10.0823 31.3326 -0.6374
v  -9.8343 31.0595 -0.0569
v  -10.6811 31.4457 -0.8779
v  -11.2799 31.3326 -0.6374
v  -11.5279 31.0595 -0.0569
v  -11.2799 30.7864 0.5235
v  -10.6811 30.6733 0.7640
v  -10.0823 30.7864 0.5235
v  -10.1002 31.9944 1.5231
v  -9.8596 31.9081 1.6156
v  -10.6811 32.2785 1.5373
v  -11.2619 31.9944 1.5231
v  -11.5026 31.9081 1.6156
v  -11.2619 31.2224 1.5813
v  -10.6811 30.9384 1.5670
v  -10.1002 31.2224 1.5813
v  -9.9594 30.6228 3.7609
v  -9.9680 29.7087 2.6629
v  -10.4497 30.6121 3.9697
v  -11.1517 30.5099 3.9854
v  -11.6542 30.3759 3.7990
v  -11.6628 29.4619 2.7009
v  -11.1725 29.3596 2.1982
v  -10.4705 29.4619 2.1825
v  -9.1230 25.6423 3.7033
v  -9.1048 25.6888 2.9673
v  -9.5986 26.3907 4.0961
v  -10.2529 26.6639 4.0695
v  -10.7027 26.3020 3.6391
v  -10.6844 26.3485 2.9031
v  -10.2089 26.0352 3.0360
v  -9.5545 25.7620 3.0626
v  -10.2451 22.9073 3.1997
v  -10.5297 22.7285 2.5430
v  -10.4467 22.6763 3.5069
v  -11.0166 22.3761 3.8047
v  -11.6209 22.0374 3.5509
v  -11.9055 22.1558 3.5628
v  -11.7039 22.2417 2.8879
v  -11.1340 22.5418 2.5901
v  -9.2577 18.0383 3.5050
v  -9.4794 17.0964 3.7172
v  -9.3227 17.2678 4.3520
v  -9.9811 17.4707 4.5217
v  -10.6195 17.5301 4.1568
v  -10.8639 17.4111 3.4710
v  -10.4730 17.7674 3.1247
v  -9.9228 17.3219 3.1725
# 56 vertices

vn 0.5511 -0.6205 0.5580
vn 0.0000 -0.6131 0.7900
vn -0.5511 -0.6205 0.5580
vn -0.7764 -0.6302 0.0033
vn -0.5489 -0.6306 -0.5487
vn 0.0000 -0.6285 -0.7778
vn 0.5489 -0.6306 -0.5487
vn 0.7764 -0.6302 0.0033
vn 0.6390 0.4702 -0.6088
vn 0.9905 0.0931 -0.1013
vn 0.0000 0.5649 -0.8251
vn -0.6390 0.4702 -0.6088
vn -0.9905 0.0931 -0.1013
vn -0.7870 -0.3419 0.5136
vn -0.0000 -0.5926 0.8055
vn 0.7870 -0.3419 0.5136
vn 0.3731 0.9244 0.0787
vn 0.6911 0.5820 0.4286
vn -0.0086 0.9920 0.1259
vn -0.3684 0.9254 0.0886
vn -0.7771 0.6125 0.1451
vn -0.7703 -0.5464 -0.3287
vn 0.0397 -0.8687 -0.4938
vn 0.8383 -0.5192 -0.1665
vn 0.7180 0.4330 0.5450
vn 0.9129 -0.0029 -0.4083
vn 0.1241 0.4890 0.8634
vn -0.2239 0.4537 0.8626
vn -0.7715 0.2278 0.5940
vn -0.9526 -0.1950 -0.2334
vn -0.4351 -0.2675 -0.8597
vn 0.3448 -0.2505 -0.9046
vn 0.8324 -0.1893 0.5209
vn 0.7442 -0.0629 -0.6650
vn 0.3800 0.0120 0.9249
vn -0.3209 -0.0355 0.9464
vn -0.9143 0.0196 0.4045
vn -0.4855 -0.0758 -0.8709
vn 0.0647 -0.1289 -0.9895
vn -0.1130 -0.0341 -0.9930
vn 0.9810 -0.1938 -0.0027
vn 0.3908 -0.0222 -0.9202
vn 0.6390 -0.0005 0.7692
vn -0.0380 0.0570 0.9976
vn -0.1292 0.0698 0.9892
vn -0.8107 0.0549 0.5829
vn -0.7847 0.0367 -0.6188
vn -0.3407 0.1138 -0.9333
vn 0.6954 -0.0033 -0.7186
vn -0.2408 0.8520 -0.4648
vn 0.5104 -0.8120 0.2831
vn -0.1293 -0.4526 0.8823
vn -0.5980 -0.5296 0.6016
vn -0.4398 -0.8599 -0.2593
vn -0.2377 -0.2187 -0.9464
vn 0.0882 -0.7380 -0.6690
# 56 vertex normals

vt 0.4786 0.0000 0.4142
vt 0.2197 0.0000 -0.4142
vt 0.1250 0.0000 -1.0000
vt 0.2500 0.0000 -1.0000
vt 0.5214 0.0000 -0.4142
vt 0.7803 0.0000 0.4142
vt 0.8750 0.0000 1.0000
vt 0.7500 0.0000 1.0000
vt 0.8750 0.1667 1.0000
vt 0.7500 0.1667 1.0000
vt -0.1250 0.0000 1.0000
vt 0.0000 0.0000 1.0000
vt 0.0000 0.1667 1.0000
vt -0.1250 0.1667 1.0000
vt 0.1250 0.0000 1.0000
vt 0.1250 0.1667 1.0000
vt 0.2500 0.0000 1.0000
vt 0.2500 0.1667 1.0000
vt 0.3750 0.0000 1.0000
vt 0.3750 0.1667 1.0000
vt 0.5000 0.0000 1.0000
vt 0.5000 0.1667 1.0000
vt 0.6250 0.0000 1.0000
vt 0.6250 0.1667 1.0000
vt 0.8750 0.3333 1.0000
vt 0.7500 0.3333 1.0000
vt 0.0000 0.3333 1.0000
vt -0.1250 0.3333 1.0000
vt 0.1250 0.3333 1.0000
vt 0.2500 0.3333 1.0000
vt 0.3750 0.3333 1.0000
vt 0.5000 0.3333 1.0000
vt 0.6250 0.3333 1.0000
vt 0.8750 0.5000 1.0000
vt 0.7500 0.5000 1.0000
vt 0.0000 0.5000 1.0000
vt -0.1250 0.5000 1.0000
vt 0.1250 0.5000 1.0000
vt 0.2500 0.5000 1.0000
vt 0.3750 0.5000 1.0000
vt 0.5000 0.5000 1.0000
vt 0.6250 0.5000 1.0000
vt 0.8750 0.6667 1.0000
vt 0.7500 0.6667 1.0000
vt 0.0000 0.6667 1.0000
vt -0.1250 0.6667 1.0000
vt 0.1250 0.6667 1.0000
vt 0.2500 0.6667 1.0000
vt 0.3750 0.6667 1.0000
vt 0.5000 0.6667 1.0000
vt 0.6250 0.6667 1.0000
vt 0.8750 0.8333 1.0000
vt 0.7500 0.8333 1.0000
vt 0.0000 0.8333 1.0000
vt -0.1250 0.8333 1.0000
vt 0.1250 0.8333 1.0000
vt 0.2500 0.8333 1.0000
vt 0.3750 0.8333 1.0000
vt 0.5000 0.8333 1.0000
vt 0.6250 0.8333 1.0000
vt 0.8750 1.0000 1.0000
vt 0.7500 1.0000 1.0000
vt 0.0000 1.0000 1.0000
vt -0.1250 1.0000 1.0000
vt 0.1250 1.0000 1.0000
vt 0.2500 1.0000 1.0000
vt 0.3750 1.0000 1.0000
vt 0.5000 1.0000 1.0000
vt 0.6250 1.0000 1.0000
vt 0.7803 1.0000 0.4142
vt 0.5214 1.0000 -0.4142
vt 0.2500 1.0000 -1.0000
vt 0.1250 1.0000 -1.0000
vt 0.2197 1.0000 -0.4142
# 74 texture coords

o Cylinder001
g Cylinder001
usemtl wire_153228214
s 1
f 131/163/124 132/164/125 133/165/126 134/166/127 135/167/128 136/168/129 137/169/130 138/170/131 
s 8
f 138/170/131 137/169/130 139/171/132 140/172/133 
f 137/173/130 136/174/129 141/175/134 139/176/132 
f 136/174/129 135/177/128 142/178/135 141/175/134 
f 135/177/128 134/179/127 143/180/136 142/178/135 
f 134/179/127 133/181/126 144/182/137 143/180/136 
f 133/181/126 132/183/125 145/184/138 144/182/137 
f 132/183/125 131/185/124 146/186/139 145/184/138 
f 131/185/124 138/170/131 140/172/133 146/186/139 
f 140/172/133 139/171/132 147/187/140 148/188/141 
f 139/176/132 141/175/134 149/189/142 147/190/140 
f 141/175/134 142/178/135 150/191/143 149/189/142 
f 142/178/135 143/180/136 151/192/144 150/191/143 
f 143/180/136 144/182/137 152/193/145 151/192/144 
f 144/182/137 145/184/138 153/194/146 152/193/145 
f 145/184/138 146/186/139 154/195/147 153/194/146 
f 146/186/139 140/172/133 148/188/141 154/195/147 
f 148/188/141 147/187/140 155/196/148 156/197/149 
f 147/190/140 149/189/142 157/198/150 155/199/148 
f 149/189/142 150/191/143 158/200/151 157/198/150 
f 150/191/143 151/192/144 159/201/152 158/200/151 
f 151/192/144 152/193/145 160/202/153 159/201/152 
f 152/193/145 153/194/146 161/203/154 160/202/153 
f 153/194/146 154/195/147 162/204/155 161/203/154 
f 154/195/147 148/188/141 156/197/149 162/204/155 
f 156/197/149 155/196/148 163/205/156 164/206/157 
f 155/199/148 157/198/150 165/207/158 163/208/156 
f 157/198/150 158/200/151 166/209/159 165/207/158 
f 158/200/151 159/201/152 167/210/160 166/209/159 
f 159/201/152 160/202/153 168/211/161 167/210/160 
f 160/202/153 161/203/154 169/212/162 168/211/161 
f 161/203/154 162/204/155 170/213/163 169/212/162 
f 162/204/155 156/197/149 164/206/157 170/213/163 
f 164/206/157 163/205/156 171/214/164 172/215/165 
f 163/208/156 165/207/158 173/216/166 171/217/164 
f 165/207/158 166/209/159 174/218/167 173/216/166 
f 166/209/159 167/210/160 175/219/168 174/218/167 
f 167/210/160 168/211/161 176/220/169 175/219/168 
f 168/211/161 169/212/162 177/221/170 176/220/169 
f 169/212/162 170/213/163 178/222/171 177/221/170 
f 170/213/163 164/206/157 172/215/165 178/222/171 
f 172/215/165 171/214/164 179/223/172 180/224/173 
f 171/217/164 173/216/166 181/225/174 179/226/172 
f 173/216/166 174/218/167 182/227/175 181/225/174 
f 174/218/167 175/219/168 183/228/176 182/227/175 
f 175/219/168 176/220/169 184/229/177 183/228/176 
f 176/220/169 177/221/170 185/230/178 184/229/177 
f 177/221/170 178/222/171 186/231/179 185/230/178 
f 178/222/171 172/215/165 180/224/173 186/231/179 
s 1
f 186/231/179 180/224/173 179/223/172 181/232/174 182/233/175 183/234/176 184/235/177 185/236/178 
# 50 polygons

